<svg version="1.1" id="Layer_1" xmlns="http://www.w3.org/2000/svg" xmlns:xlink="http://www.w3.org/1999/xlink" x="0px" y="0px"
	 width="32px" height="32px" viewBox="0 0 32 32" enable-background="new 0 0 32 32" xml:space="preserve">
<path fill="#E2E5E7" d="M8.619,1.083c-1.017,0-1.849,0.832-1.849,1.849v25.886c0,1.016,0.832,1.848,1.849,1.848h18.49
	c1.017,0,1.849-0.832,1.849-1.848V8.479l-7.396-7.396H8.619z"/>
<path fill="#B1B7BD" d="M22.494,8.688h5.547l-7.396-7.396v5.547C20.646,7.855,21.478,8.688,22.494,8.688z"/>
<polygon fill="#CBD1D8" points="28.958,14.026 23.411,8.479 28.958,8.479 "/>
<path fill="#F15843" d="M25.26,25.119c0,0.51-0.416,0.926-0.924,0.926H3.997c-0.509,0-0.925-0.416-0.925-0.926v-9.245
	c0-0.508,0.416-0.924,0.925-0.924h20.339c0.508,0,0.924,0.416,0.924,0.924V25.119z"/>
<g>
	<path fill="#FFFFFF" d="M7.103,18.6c0-0.244,0.192-0.51,0.502-0.51h1.707c0.962,0,1.827,0.643,1.827,1.875
		c0,1.17-0.865,1.82-1.827,1.82H8.078v0.977c0,0.324-0.207,0.51-0.473,0.51c-0.244,0-0.502-0.186-0.502-0.51V18.6z M8.078,19.02
		v1.842h1.234c0.495,0,0.888-0.438,0.888-0.896c0-0.516-0.393-0.945-0.888-0.945H8.078z"/>
	<path fill="#FFFFFF" d="M12.586,23.271c-0.243,0-0.51-0.135-0.51-0.459v-4.199c0-0.264,0.267-0.459,0.51-0.459h1.694
		c3.377,0,3.304,5.117,0.066,5.117H12.586z M13.052,19.059v3.311h1.228c1.995,0,2.084-3.311,0-3.311H13.052z"/>
	<path fill="#FFFFFF" d="M18.781,19.117v1.176h1.885c0.267,0,0.533,0.266,0.533,0.523c0,0.244-0.267,0.443-0.533,0.443h-1.885v1.553
		c0,0.26-0.184,0.457-0.443,0.457c-0.325,0-0.523-0.197-0.523-0.457v-4.199c0-0.266,0.199-0.459,0.523-0.459h2.596
		c0.325,0,0.518,0.193,0.518,0.459c0,0.236-0.192,0.502-0.518,0.502h-2.152V19.117z"/>
</g>
<path fill="#CBD1D8" d="M24.336,26.045H6.771v0.924h17.565c0.508,0,0.924-0.416,0.924-0.924v-0.926
	C25.26,25.629,24.844,26.045,24.336,26.045z"/>
</svg>
