<svg xmlns="http://www.w3.org/2000/svg" width="32" height="32" viewBox="0 0 32 32">
    <path fill="#C9CDD0" fill-rule="nonzero" d="M16 31.432c-4.411 0-8-3.589-8-8V6.804h1.882v16.628A6.125 6.125 0 0 0 16 29.55a6.125 6.125 0 0 0 6.118-6.118V6.804a3.926 3.926 0 0 0-3.922-3.922 3.926 3.926 0 0 0-3.921 3.922v16.628c0 .951.774 1.725 1.725 1.725.952 0 1.726-.774 1.726-1.725V6.804h1.882v16.628A3.612 3.612 0 0 1 16 27.04a3.612 3.612 0 0 1-3.608-3.608V6.804A5.81 5.81 0 0 1 18.196 1 5.81 5.81 0 0 1 24 6.804v16.628c0 4.411-3.589 8-8 8z"/>
</svg>
