<svg version="1.1" id="Layer_1" xmlns="http://www.w3.org/2000/svg" xmlns:xlink="http://www.w3.org/1999/xlink" x="0px" y="0px"
	 width="32px" height="32px" viewBox="0 0 32 32" enable-background="new 0 0 32 32" xml:space="preserve">
<path fill="#E2E5E7" d="M8.619,1.083c-1.017,0-1.849,0.832-1.849,1.849v25.886c0,1.016,0.832,1.848,1.849,1.848h18.49
	c1.017,0,1.849-0.832,1.849-1.848V8.479l-7.396-7.396H8.619z"/>
<path fill="#B1B7BD" d="M22.494,8.688h5.547l-7.396-7.396v5.547C20.646,7.855,21.479,8.688,22.494,8.688z"/>
<polygon fill="#CBD1D8" points="28.958,14.026 23.411,8.479 28.958,8.479 "/>
<path fill="#F15843" d="M25.26,25.119c0,0.51-0.416,0.926-0.924,0.926H3.997c-0.509,0-0.925-0.416-0.925-0.926v-9.245
	c0-0.508,0.416-0.924,0.925-0.924h20.339c0.508,0,0.924,0.416,0.924,0.924V25.119z"/>
<path fill="#CBD1D8" d="M24.336,26.045H6.771v0.924h17.565c0.508,0,0.924-0.416,0.924-0.924v-0.926
	C25.26,25.629,24.844,26.045,24.336,26.045z"/>
<g>
	<path fill="#FFFFFF" d="M6.262,17.973h3.528v0.528H7.118v1.624h2.469v0.521H7.118v2.211H6.262V17.973z"/>
	<path fill="#FFFFFF" d="M11.848,17.973v4.885h-0.855v-4.885H11.848z"/>
	<path fill="#FFFFFF" d="M13.313,17.973h0.855v4.355h2.8v0.529h-3.655V17.973z"/>
	<path fill="#FFFFFF" d="M21.29,20.567h-2.537v1.761h2.839v0.529h-3.694v-4.885h3.548v0.528h-2.692v1.544h2.537V20.567z"/>
</g>
</svg>
