<svg xmlns="http://www.w3.org/2000/svg" width="110" height="28" viewBox="0 0 110 28">
    <path fill="#555555" d="M20,5.14a1.5,1.5,0,0,1,.42-1.09,1.55,1.55,0,0,1,1.19-.43,1.58,1.58,0,0,1,1.19.43,1.5,1.5,0,0,1,.42,1.09,1.45,1.45,0,0,1-.42,1.07,1.58,1.58,0,0,1-1.19.43,1.55,1.55,0,0,1-1.19-.43A1.45,1.45,0,0,1,20,5.14Zm3,16H20.18V8.43H23Z"/>
    <path fill="#555555" d="M26.4,21.11V4.05h5.85a7.15,7.15,0,0,1,4.4,1.16,4.08,4.08,0,0,1,1.51,3.46,3.71,3.71,0,0,1-.63,2.11,4.07,4.07,0,0,1-1.85,1.45,3.8,3.8,0,0,1,2.14,1.41,4.13,4.13,0,0,1,.75,2.49A4.53,4.53,0,0,1,37,19.82a6.67,6.67,0,0,1-4.41,1.29Zm3-9.88h2.91a3.35,3.35,0,0,0,2.16-.62,2.15,2.15,0,0,0,.78-1.78A2.19,2.19,0,0,0,34.49,7a3.67,3.67,0,0,0-2.24-.56H29.36Zm0,2.18v5.34h3.3a3.16,3.16,0,0,0,2.18-.7,2.43,2.43,0,0,0,.78-1.92,2.44,2.44,0,0,0-2.72-2.72Z"/>
    <path fill="#555555" d="M48.84,21.11a4.33,4.33,0,0,1-.33-1.18,4.4,4.4,0,0,1-3.33,1.42,4.48,4.48,0,0,1-3.11-1.09,3.49,3.49,0,0,1-1.21-2.7,3.59,3.59,0,0,1,1.51-3.11,7.28,7.28,0,0,1,4.3-1.08h1.75v-.83A2.25,2.25,0,0,0,47.87,11a2.18,2.18,0,0,0-1.68-.59,2.51,2.51,0,0,0-1.59.48A1.5,1.5,0,0,0,44,12.09H41.13a3.14,3.14,0,0,1,.69-1.95A4.64,4.64,0,0,1,43.7,8.71a6.68,6.68,0,0,1,2.66-.51,5.32,5.32,0,0,1,3.55,1.12,4,4,0,0,1,1.36,3.14v5.72a6.49,6.49,0,0,0,.48,2.73v.2Zm-3.13-2.05a3.19,3.19,0,0,0,1.59-.41,2.76,2.76,0,0,0,1.12-1.1V15.16H46.88a4.21,4.21,0,0,0-2.38.55,1.79,1.79,0,0,0-.79,1.56,1.68,1.68,0,0,0,.54,1.31A2.14,2.14,0,0,0,45.71,19.06Z"/>
    <path fill="#555555" d="M56.89,8.43,57,9.9a4.57,4.57,0,0,1,3.69-1.7q4,0,4,4.53v8.38H61.85V12.9a2.66,2.66,0,0,0-.52-1.79,2.2,2.2,0,0,0-1.71-.58,2.75,2.75,0,0,0-2.57,1.56v9H54.21V8.43Z"/>
    <path fill="#555555" d="M71.71,15.68,70.45,17v4.13H67.6v-18h2.85V13.5l.89-1.12,3.5-4h3.43l-4.72,5.29,5.22,7.39H75.48Z"/>
    <path fill="#555555" d="M91.41,21.11H79.94V19.16L85.62,13a14.26,14.26,0,0,0,1.76-2.29,3.82,3.82,0,0,0,.52-1.85,2.8,2.8,0,0,0-.69-2,2.36,2.36,0,0,0-1.84-.75A2.74,2.74,0,0,0,83.22,7a3.29,3.29,0,0,0-.76,2.3H79.61a5.58,5.58,0,0,1,.71-2.8,4.87,4.87,0,0,1,2-1.94,6.46,6.46,0,0,1,3-.69,5.78,5.78,0,0,1,3.92,1.24,4.35,4.35,0,0,1,1.44,3.46A5.83,5.83,0,0,1,90,11.19a15.35,15.35,0,0,1-2.37,3.19l-4.17,4.46h7.92Z"/>
</svg>