<?xml version="1.0" encoding="UTF-8"?>
<svg width="32px" height="32px" viewBox="0 0 32 32" version="1.1" xmlns="http://www.w3.org/2000/svg" xmlns:xlink="http://www.w3.org/1999/xlink">
    <!-- Generator: Sketch 46.2 (44496) - http://www.bohemiancoding.com/sketch -->
    <title>cancel</title>
    <desc>Created with Sketch.</desc>
    <defs></defs>
    <g id="Symbols" stroke="none" stroke-width="1" fill="none" fill-rule="evenodd">
        <g id="cancel">
            <circle id="Oval" stroke="#D3D7E0" cx="16" cy="16" r="16"></circle>
            <g id="return-button" transform="translate(9.000000, 9.000000)" fill-rule="nonzero" fill="#BDC4D2">
                <path d="M10.7501567,2.11494026 L4.77346197,2.11494026 L5.27428281,0.890708366 C5.38081487,0.629470238 5.3028897,0.330757083 5.0828741,0.154252566 C4.86257244,-0.0221375234 4.55255956,-0.0319210801 4.32081514,0.129107109 L0.273884096,2.94004882 C0.0966071927,3.06317288 -0.00632040085,3.26779797 0.000316397848,3.48343671 C0.00692458965,3.69893242 0.12221036,3.89669186 0.3066962,4.00863062 L4.53837054,6.57818739 C4.77915474,6.72431139 5.08705071,6.69527539 5.29590962,6.50669877 C5.50508321,6.31815075 5.56558678,6.01145627 5.44520898,5.75714101 L4.8890052,4.58048237 L10.7501567,4.58048237 C11.1826642,4.58048237 11.5345004,4.93909836 11.5345004,5.37157733 L11.5345004,9.65837716 C11.5345004,10.0908561 11.1826642,10.4361985 10.7501567,10.4361985 L4.26383021,10.4361985 C3.68522723,10.4361985 3.21616004,10.9052371 3.21616004,11.4838401 L3.21616004,11.8540705 C3.21616004,12.4327307 3.68522723,12.9017692 4.26383021,12.9017692 L10.7501567,12.9017692 C12.5421495,12.9017692 14.0000139,11.4504844 14.0000139,9.65834855 L14.0000139,5.37160594 C14.0000711,3.57947005 12.5421495,2.11494026 10.7501567,2.11494026 Z" id="Shape"></path>
            </g>
        </g>
    </g>
</svg>