<?xml version="1.0" encoding="UTF-8"?>
<svg width="32px" height="32px" viewBox="0 0 32 32" version="1.1" xmlns="http://www.w3.org/2000/svg" xmlns:xlink="http://www.w3.org/1999/xlink">
    <!-- Generator: Sketch 46.2 (44496) - http://www.bohemiancoding.com/sketch -->
    <title>print</title>
    <desc>Created with Sketch.</desc>
    <defs></defs>
    <g id="Symbols" stroke="none" stroke-width="1" fill="none" fill-rule="evenodd">
        <g id="print">
            <circle id="Oval" stroke="#D5D9E1" cx="16" cy="16" r="16"></circle>
            <path d="M21.6,13.0176471 L10.4,13.0176471 C9.04,13.0176471 8,14.0576471 8,15.4176471 L8,20.2176471 L11.2,20.2176471 L11.2,23.4176471 L20.8,23.4176471 L20.8,20.2176471 L24,20.2176471 L24,15.4176471 C24,14.0576471 22.96,13.0176471 21.6,13.0176471 Z M19.2,21.8176471 L12.8,21.8176471 L12.8,17.8176471 L19.2,17.8176471 L19.2,21.8176471 Z M21.6,16.2176471 C21.12,16.2176471 20.8,15.8976471 20.8,15.4176471 C20.8,14.9376471 21.12,14.6176471 21.6,14.6176471 C22.08,14.6176471 22.4,14.9376471 22.4,15.4176471 C22.4,15.8976471 22.08,16.2176471 21.6,16.2176471 Z M20.8,9.01764706 L11.2,9.01764706 L11.2,12.2176471 L20.8,12.2176471 L20.8,9.01764706 Z" id="Shape" fill="#BDC4D2" fill-rule="nonzero"></path>
        </g>
    </g>
</svg>