<?xml version="1.0" encoding="UTF-8"?>
<svg width="32px" height="32px" viewBox="0 0 32 32" version="1.1" xmlns="http://www.w3.org/2000/svg" xmlns:xlink="http://www.w3.org/1999/xlink">
    <!-- Generator: Sketch 46.2 (44496) - http://www.bohemiancoding.com/sketch -->
    <title>Copy</title>
    <desc>Created with Sketch.</desc>
    <defs></defs>
    <g id="Symbols" stroke="none" stroke-width="1" fill="none" fill-rule="evenodd">
        <g id="Copy">
            <circle id="Oval-Copy" stroke="#D3D7E0" cx="16" cy="16" r="15.5"></circle>
            <g id="copy-2" transform="translate(9.000000, 8.000000)" fill-rule="nonzero">
                <path d="M0.724137931,13.0344828 L2.89655172,13.0344828 L2.89655172,15.2068966 C2.89655172,15.6068138 3.22077241,15.9310345 3.62068966,15.9310345 L13.2758621,15.9310345 C13.6757793,15.9310345 14,15.6068138 14,15.2068966 L14,3.62068966 C14,3.22077241 13.6757793,2.89655172 13.2758621,2.89655172 L11.1034483,2.89655172 L11.1034483,0.724137931 C11.1034483,0.32422069 10.7792276,0 10.3793103,0 L0.724137931,0 C0.32422069,0 0,0.32422069 0,0.724137931 L0,12.3103448 C0,12.7102621 0.32422069,13.0344828 0.724137931,13.0344828 Z M12.5517241,14.4827586 L4.34482759,14.4827586 L4.34482759,4.34482759 L12.5517241,4.34482759 L12.5517241,14.4827586 Z M1.44827586,1.44827586 L9.65517241,1.44827586 L9.65517241,2.89655172 L3.62068966,2.89655172 C3.22077241,2.89655172 2.89655172,3.22077241 2.89655172,3.62068966 L2.89655172,11.5862069 L1.44827586,11.5862069 L1.44827586,1.44827586 Z" id="Shape" fill="#BDC4D2"></path>
                <path d="M6.51724138,5.79310345 C6.11732414,5.79310345 5.79310345,6.11732414 5.79310345,6.51724138 C5.79310345,6.91715862 6.11732414,7.24137931 6.51724138,7.24137931 L10.3793103,7.24137931 C10.7792276,7.24137931 11.1034483,6.91715862 11.1034483,6.51724138 C11.1034483,6.11732414 10.7792276,5.79310345 10.3793103,5.79310345 L6.51724138,5.79310345 Z" id="Shape" fill="#B8BEC1"></path>
                <path d="M10.3793103,8.68965517 L6.51724138,8.68965517 C6.11732414,8.68965517 5.79310345,9.01387586 5.79310345,9.4137931 C5.79310345,9.81371034 6.11732414,10.137931 6.51724138,10.137931 L10.3793103,10.137931 C10.7792276,10.137931 11.1034483,9.81371034 11.1034483,9.4137931 C11.1034483,9.01387586 10.7792276,8.68965517 10.3793103,8.68965517 Z" id="Shape" fill="#B8BEC1"></path>
                <path d="M10.3793103,11.5862069 L6.51724138,11.5862069 C6.11732414,11.5862069 5.79310345,11.9104276 5.79310345,12.3103448 C5.79310345,12.7102621 6.11732414,13.0344828 6.51724138,13.0344828 L10.3793103,13.0344828 C10.7792276,13.0344828 11.1034483,12.7102621 11.1034483,12.3103448 C11.1034483,11.9104276 10.7792276,11.5862069 10.3793103,11.5862069 Z" id="Shape" fill="#B8BEC1"></path>
            </g>
        </g>
    </g>
</svg>