<?xml version="1.0" encoding="UTF-8"?>
<svg width="32px" height="32px" viewBox="0 0 32 32" version="1.1" xmlns="http://www.w3.org/2000/svg" xmlns:xlink="http://www.w3.org/1999/xlink">
    <!-- Generator: Sketch 46.2 (44496) - http://www.bohemiancoding.com/sketch -->
    <title>info copy 2</title>
    <desc>Created with Sketch.</desc>
    <defs></defs>
    <g id="Symbols" stroke="none" stroke-width="1" fill="none" fill-rule="evenodd">
        <g id="info-copy-2">
            <circle id="Oval-Copy-2" stroke="#D3D7E0" cx="16" cy="16" r="15.5"></circle>
            <path d="M23.3199273,10 C24.2462821,10 25,10.7385764 25,11.6463214 L25,20.3536786 C25,21.2614968 24.2462821,22 23.3199273,22 L8.68007268,22 C7.75371794,22 7,21.2614968 7,20.3536786 L7,11.6463214 C7,10.7385032 7.75371794,10 8.68007268,10 L23.3199273,10 Z M21.8295909,12.3321423 L16.0006347,17.3654224 L10.1704091,12.3320691 C9.93826044,12.1316569 9.5843998,12.1536811 9.37995362,12.3810197 C9.17558211,12.6084316 9.19783374,12.9551835 9.42998245,13.1555957 L15.630496,18.5086279 C15.7363033,18.5999439 15.8685436,18.6456019 16.0007094,18.6456019 C16.1328751,18.6456019 16.2651901,18.5999439 16.3709974,18.5085548 L22.5702416,13.1555225 C22.8022409,12.9551835 22.8245672,12.6083584 22.620121,12.3809466 C22.4155255,12.1537542 22.0617396,12.1318033 21.8295909,12.3321423 Z" id="Combined-Shape" fill="#BDC4D2" fill-rule="nonzero"></path>
        </g>
    </g>
</svg>