<svg xmlns="http://www.w3.org/2000/svg" width="135" height="135" viewBox="0 0 135 135">
    <g fill="none" fill-rule="evenodd">
        <path fill="#F7F8FA" fill-rule="nonzero" d="M105.333 15.75H93.666V13.5c0-2.475-2.1-4.5-4.666-4.5h-7V6.75C82 2.925 78.967 0 75 0H61c-3.967 0-7 3.15-7 6.75V9h-7c-2.567 0-4.667 2.025-4.667 4.5v2.25H30.667C24.133 15.75 19 20.7 19 27v96.75c0 6.3 5.133 11.25 11.667 11.25h74.666c6.534 0 11.667-4.95 11.667-11.25V27c0-6.3-5.133-11.25-11.667-11.25zm7 108c0 3.825-3.033 6.75-7 6.75H30.667c-3.967 0-7-2.925-7-6.75V27c0-3.825 3.033-6.75 7-6.75h11.666v9c0 2.475 2.1 4.5 4.667 4.5h42c2.567 0 4.667-2.025 4.667-4.5v-9h11.666c3.967 0 7 2.925 7 6.75v96.75z"/>
        <path fill="#FFF" d="M112.333 123.75c0 3.825-3.033 6.75-7 6.75H30.667c-3.967 0-7-2.925-7-6.75V27c0-3.825 3.033-6.75 7-6.75h11.666v9c0 2.475 2.1 4.5 4.667 4.5h42c2.567 0 4.667-2.025 4.667-4.5v-9h11.666c3.967 0 7 2.925 7 6.75v96.75z"/>
        <g fill="#C9CDD0">
            <path d="M42 45c-2.75 0-5 2.025-5 4.5s2.25 4.5 5 4.5 5-2.025 5-4.5-2.25-4.5-5-4.5zM92.684 47H53.316c-1.39 0-2.316.8-2.316 2s.926 2 2.316 2h39.368c1.39 0 2.316-.8 2.316-2s-.926-2-2.316-2z"/>
            <path fill-opacity=".7" d="M42 65c-2.75 0-5 2.025-5 4.5s2.25 4.5 5 4.5 5-2.025 5-4.5-2.25-4.5-5-4.5zM92.684 68H53.316c-1.39 0-2.316.8-2.316 2s.926 2 2.316 2h39.368c1.39 0 2.316-.8 2.316-2s-.926-2-2.316-2z"/>
            <path fill-opacity=".5" d="M42 85c-2.75 0-5 2.025-5 4.5s2.25 4.5 5 4.5 5-2.025 5-4.5-2.25-4.5-5-4.5zM92.684 87H53.316c-1.39 0-2.316.8-2.316 2s.926 2 2.316 2h39.368c1.39 0 2.316-.8 2.316-2s-.926-2-2.316-2z"/>
            <path fill-opacity=".2" d="M42 106c-2.75 0-5 2.025-5 4.5s2.25 4.5 5 4.5 5-2.025 5-4.5-2.25-4.5-5-4.5zM92.684 108H53.316c-1.39 0-2.316.8-2.316 2s.926 2 2.316 2h39.368c1.39 0 2.316-.8 2.316-2s-.926-2-2.316-2z"/>
        </g>
    </g>
</svg>
