<svg xmlns="http://www.w3.org/2000/svg" width="135" height="135" viewBox="0 0 135 135">
    <g fill="none" fill-rule="nonzero">
        <path fill="#D9DCDE" d="M42.5 65a5 5 0 1 1 0-10 5 5 0 0 1 0 10zm33.305 0a5 5 0 1 1 0-10 5 5 0 0 1 0 10zm16.652 0a5 5 0 1 1 0-10 5 5 0 0 1 0 10zm-33.305 0a5 5 0 1 1 0-10 5 5 0 0 1 0 10z"/>
        <path fill="#E4E6E7" d="M42.5 81.652a5 5 0 1 1 0-10 5 5 0 0 1 0 10zm16.652 0a5 5 0 1 1 0-10 5 5 0 0 1 0 10zm33.305 0a5 5 0 1 1 0-10 5 5 0 0 1 0 10z"/>
        <path fill="#F7F8FA" d="M59.152 98.305a5 5 0 1 1 0-10 5 5 0 0 1 0 10zm16.653 0a5 5 0 1 1 0-10 5 5 0 0 1 0 10z"/>
        <path fill="#AEAEAE" d="M75.805 81.652a5 5 0 1 1 0-10 5 5 0 0 1 0 10zM42.5 98.305a5 5 0 1 1 0-10 5 5 0 0 1 0 10z"/>
        <g fill="#F7F8FA" stroke="#F7F8FA">
            <path d="M106.44 25.15H98.55v-3.279a2.87 2.87 0 1 0-5.742 0v3.28h-12.71v-3.28a2.87 2.87 0 1 0-5.742 0v3.28h-12.71v-3.28a2.87 2.87 0 1 0-5.742 0v3.28h-12.71v-3.28a2.87 2.87 0 1 0-5.742 0v3.28H29.56C23.737 25.15 19 29.887 19 35.71v70.731C19 112.263 23.737 117 29.56 117h76.88c5.823 0 10.56-4.737 10.56-10.559V35.71c0-5.822-4.737-10.56-10.56-10.56zm4.818 81.291a4.822 4.822 0 0 1-4.817 4.817H29.559a4.822 4.822 0 0 1-4.817-4.817V35.71a4.823 4.823 0 0 1 4.817-4.817h7.892v.204a2.871 2.871 0 0 0 5.742 0v-.204h12.71v.204a2.87 2.87 0 1 0 5.742 0v-.204h12.71v.204a2.87 2.87 0 1 0 5.742 0v-.204h12.71v.204a2.87 2.87 0 1 0 5.742 0v-.204h7.892a4.823 4.823 0 0 1 4.817 4.817v70.731z"/>
        </g>
    </g>
</svg>
