<?xml version="1.0" encoding="UTF-8"?>
<svg width="16" height="22" viewBox="0 0 16 22" xmlns="http://www.w3.org/2000/svg">
    <g fill-rule="nonzero" fill="#AEAEAE">
        <path d="M15.467 6.4h-4.8v1.067h4.266v12.8H1.067v-12.8h4.266V6.4h-4.8A.534.534 0 0 0 0 6.933V20.8c0 .294.239.533.533.533h14.934A.534.534 0 0 0 16 20.8V6.933a.534.534 0 0 0-.533-.533z"/>
        <path d="M11.582 9.76a.533.533 0 0 0-.755-.008l-2.294 2.244V.533a.534.534 0 0 0-1.066 0v11.462L5.173 9.751a.533.533 0 0 0-.746.763l3.2 3.13c.21.207.549.203.755-.007l3.191-3.123a.533.533 0 0 0 .008-.754z"/>
    </g>
</svg>
